# xmcd CD database file
#
# Track frame offsets:
#	150
#	5162
#	23645
#	44520
#	64610
#	90220
#	113705
#	132872
#	156970
#	177217
#	198380
#	217052
#	244090
#	266145
#
# Disc length: 3662 seconds
#
# Revision: 0
# Processed by: cddbd v1.5.1PL0 Copyright (c) Steve Scherf et al.
# Submitted via: CDex 1.51
#
DISCID=bf0e4c0e
DTITLE=moonriders - P.W Babies Paperback
DYEAR=2005
DGENRE=J-pop
TTITLE0=Waltz for Postwar.B
TTITLE1=Wet Dreamland
TTITLE2=スペースエイジのバラッド
TTITLE3=ヤッホーヤッホーナンマイダ
TTITLE4=銅線の男
TTITLE5=Bitter Rose
TTITLE6=さすらう青春
TTITLE7=夢ギドラ85'
TTITLE8=親愛なるBlack Tie族様、善良なる半魚人より
TTITLE9=真実の犬
TTITLE10=ばら線の庭
TTITLE11=ひとは人間について語る
TTITLE12=地下道Busker's Waltz
TTITLE13=Waltzing
EXTD=YEAR: 2005
EXTT0=
EXTT1=
EXTT2=
EXTT3=
EXTT4=
EXTT5=
EXTT6=
EXTT7=
EXTT8=
EXTT9=
EXTT10=
EXTT11=
EXTT12=
EXTT13=
PLAYORDER=
